<svg preserveAspectRatio="none" overflow="visible" style="display: block;" width="5461.16" height="1900.73" viewBox="0 0 5461.16 1900.73" fill="none" xmlns="http://www.w3.org/2000/svg">
<g id="Group 5">
<g id="Group" filter="url(#filter0_f_0_4)">
<path id="Vector 7059" d="M447.073 750.264C432.845 747.054 436.191 746.425 425.845 746.054C415.498 745.683 419.845 746.554 413.845 745.554C403.615 743.849 398.032 744.682 375.66 743.642C330.747 732.326 290.394 709.695 266.675 684.463C250.373 667.122 299.644 616.882 210.186 575.921C196.026 569.437 210.675 574.483 210.186 635.758C209.697 697.033 204.482 811.08 210.186 906.578C215.89 1002.08 203.58 1076.76 210.186 1169.74C216.792 1262.71 206.073 1370.7 210.186 1450.17C214.3 1529.65 203.504 1579.1 210.186 1616.83C216.869 1654.55 205.629 1679.78 210.186 1690.32C214.743 1700.85 208.642 1696.82 210.186 1689.6C211.731 1682.38 208.509 1672.26 210.186 1663.6C215.814 1634.55 218.93 1609.57 224.469 1588.67C229.056 1571.36 233.295 1504.36 248.446 1421.29C254.533 1387.92 272.17 1361.91 318.162 1321.32C344.938 1297.7 380.263 1270.45 409.363 1250.06C438.464 1229.68 460.668 1216.56 486.847 1203.76C513.027 1190.96 542.296 1178.85 595.924 1163.44C649.553 1148.02 725.248 1129.85 767.775 1120.25C810.302 1110.65 819.394 1109.22 852.522 1110.17C941.17 1112.73 1002.65 1117.97 1015.64 1120.37C1029.37 1122.91 1053.25 1127.42 1080.42 1135.18C1108.92 1143.31 1129.92 1145.06 1149.67 1151.98C1159.84 1155.55 1222.66 1177.77 1312.58 1205.09C1370.96 1222.83 1398.16 1228.26 1424.53 1237.14C1472.87 1253.41 1546.39 1276.25 1593.66 1289.61C1620.77 1297.27 1649.06 1304.29 1732.91 1306.42C1772.65 1307.42 1831.27 1308.83 1871.9 1305.86C1934.81 1301.28 1969.17 1302.96 1987.7 1297.73C2029.86 1285.83 2098.34 1263.67 2152.43 1228.3C2190.55 1203.38 2209.96 1188.01 2235.42 1167.17C2272.39 1136.89 2314.92 1100.4 2333.77 1093.81C2352.64 1087.22 2375.71 1067.44 2446.23 1064.77C2499.66 1062.75 2540.18 1062.12 2557.06 1068.9C2580 1078.11 2604.41 1088.33 2631.98 1101.53C2655.48 1112.79 2675.4 1132.39 2760.58 1167.35C2788.98 1179 2807.04 1188.08 2857.44 1210.4C2898.38 1228.52 2968.87 1259.19 3007.47 1274.97C3051.97 1293.17 3070.86 1303.15 3101.1 1314.15C3161.1 1335.99 3203.45 1355.5 3258.89 1355.85C3337.87 1356.36 3396.78 1355.96 3444.64 1346.01C3484.55 1337.7 3554.19 1322.56 3603.05 1309.27C3651.9 1295.99 3679.87 1286.29 3694.86 1277.77C3729.04 1258.37 3754.69 1238.91 3803.42 1212.02C3843.24 1190.04 3876.68 1178.19 3902.26 1156.97C3928.69 1135.05 3936.03 1116.62 3957.79 1104.99C3991.14 1087.16 4035.59 1074.43 4124.15 1073.46C4168.59 1072.97 4237.31 1072.39 4277.77 1075.52C4349.83 1081.1 4384.05 1086.95 4416.1 1093.37C4456.87 1101.53 4483.88 1106.64 4507.27 1112.73C4542.75 1121.96 4601.74 1135.81 4625.02 1145.36C4647.47 1154.57 4697.93 1176.55 4763.08 1201.08C4837.46 1229.1 4890.85 1251.06 4912.68 1261.15C4979.91 1292.25 5007.15 1308.18 5045.06 1331.45C5067.51 1345.23 5090.97 1362.22 5119.59 1387.13C5174.55 1434.96 5250.89 1556.48 5250.89 1520.84C5250.89 1494.81 5251.52 1471.57 5250.89 1461.78C5249.34 1437.83 5252.33 1397.11 5250.89 1308.27C5249.88 1245.95 5252.68 1129.86 5250.89 1068.21C5248.35 980.973 5255.55 948.33 5250.89 902.999C5245.81 853.622 5260.3 792.591 5250.89 736.425C5246.25 708.777 5267.08 658.441 5250.89 663.131C5243.76 665.195 5177.69 674.241 5168.25 679.478C5149.84 689.693 5121.7 709.044 5052.37 708.991C5011.97 708.96 4943.34 706.942 4867.95 700.213C4792.56 693.485 4712.83 682.383 4669.84 676.832C4626.85 671.281 4620.69 671.952 4612.05 670.241C4575.9 663.085 4549.36 657.206 4521.34 649.842C4490.27 641.676 4457.12 636.588 4433.2 631.002C4404.51 624.304 4373.66 614.27 4346.91 607.514C4288.41 592.742 4265.45 589.644 4207.81 576.945C4173.17 569.315 4132.27 563.598 4092.66 549.925C4063.07 539.71 4035.73 524.074 3971.73 513.729C3918.29 505.089 3879.78 495.854 3845.99 490.821C3825.56 487.778 3805.68 481.271 3765.32 479.612C3715.46 477.563 3695.22 474.764 3671.16 472.991C3650.19 471.446 3615.11 467.528 3583.44 459.718C3548.16 451.017 3505.44 440.978 3477.45 433.217C3453.42 426.55 3422.77 416.852 3390.79 405.676C3371.94 399.085 3346.17 389.319 3313.22 387.861C3266.92 385.812 3228.48 378.151 3182.75 375.627C3145.62 373.578 3117.14 370.112 3086.91 369.006C3044.69 367.462 3005.92 363.825 2932.92 362.889C2893.55 362.385 2825.87 361.04 2786.4 363.425C2735.77 366.483 2714.8 375.115 2689.37 377.692C2659.34 380.735 2622.69 387.348 2589.48 395.538C2562.45 402.205 2533.32 410.392 2504.87 420.525C2481.95 428.69 2456.43 434.687 2432.01 448.065C2411.55 459.274 2364.1 476.333 2329.43 490.913C2268.66 516.466 2227.88 531.972 2208.24 539.801C2190.37 546.927 2169.64 551.964 2143.98 561.73C2115.86 572.434 2048.53 596.994 2005.33 613.722C1980.38 623.387 1952.62 630.658 1927.85 642.792C1898.78 657.029 1848.71 680.276 1813.14 691.207C1778.46 701.865 1756.27 704.733 1731.06 708.517C1693.87 714.098 1673.54 715.923 1657.23 717.677C1633.62 720.215 1599.31 723.7 1573.58 726.347C1544.01 729.39 1519.67 731.794 1498.18 735.522C1474.64 739.605 1449.98 740.522 1414.48 745.722C1372.74 751.839 1346.54 758.392 1323.8 759.469C1291.2 761.014 1271.78 768.108 1214.7 775.801C1188.26 779.364 1172.02 783.313 1075.72 783.937C997.842 784.441 853.504 785.371 779.274 783.921C700.995 782.392 692.77 781.77 683.104 780.863C656.037 778.324 627.776 774.655 606.644 772.712C578.538 770.128 551.485 768.43 523.548 761.993C497.001 755.876 470.267 755.497 447.073 750.264Z" fill="#CF1A02"/>
</g>
<g id="Vector" filter="url(#filter1_f_0_4)">
<path d="M3996.54 593.896C4002.24 588.173 3957.19 545.127 3731.42 418.723C3407.5 424.348 2983.19 274.086 2850.5 333.396C2621.05 435.952 2294.5 597.255 2061.07 462.12C1874.32 354.012 1687.62 401.234 1559 424.348" stroke="#FF1E00" stroke-width="71"/>
</g>
</g>
<defs>
<filter id="filter0_f_0_4" x="-1.76924e-06" y="158.054" width="5461.16" height="1742.68" filterUnits="userSpaceOnUse" color-interpolation-filters="sRGB">
<feFlood flood-opacity="0" result="BackgroundImageFix"/>
<feBlend mode="normal" in="SourceGraphic" in2="BackgroundImageFix" result="shape"/>
<feGaussianBlur stdDeviation="102" result="effect1_foregroundBlur_0_4"/>
</filter>
<filter id="filter1_f_0_4" x="1268.72" y="-3.8147e-06" width="3047.77" height="902.951" filterUnits="userSpaceOnUse" color-interpolation-filters="sRGB">
<feFlood flood-opacity="0" result="BackgroundImageFix"/>
<feBlend mode="normal" in="SourceGraphic" in2="BackgroundImageFix" result="shape"/>
<feGaussianBlur stdDeviation="142" result="effect1_foregroundBlur_0_4"/>
</filter>
</defs>
</svg>
