<svg width="167" height="32" viewBox="0 0 167 32" fill="none" xmlns="http://www.w3.org/2000/svg">

<g id="Logo Strap">

<g id="Group 1597884455">
<g id="Group">
<path id="Vector" fill-rule="evenodd" clip-rule="evenodd" d="M11.4028 3.65891L4.62916 12.3951H0L9.6104 0H26.4906V3.65891H11.4028Z" fill="white"/>
<path id="Vector_2" fill-rule="evenodd" clip-rule="evenodd" d="M22.8281 10.4365V20.5991C23.7143 21.6633 24.9547 22.2315 26.487 22.3915V10.4365H22.8281Z" fill="white"/>
<path id="Vector_3" fill-rule="evenodd" clip-rule="evenodd" d="M29.1837 8.73418L33.1187 3.65891H22.8301V0H40.5865L30.9761 12.3931H17.7548V24.5321L22.8301 20.5971L26.489 22.3896L14.0939 32V12.3931H7.40625L10.243 8.73218H29.1797L29.1837 8.73418Z" fill="white"/>
</g>
<g id="Transparent">
<path d="M47.6992 8.23781V6.22266H59.7068V8.23781H54.8659V21.7378H52.5326V8.23781H47.6992Z" fill="white"/>
<path d="M60.6923 21.7378V10.1014H62.8817V11.9499H63.0029C63.215 11.3237 63.5887 10.8312 64.1241 10.4727C64.6645 10.109 65.2756 9.9272 65.9574 9.9272C66.0988 9.9272 66.2655 9.93225 66.4574 9.94235C66.6544 9.95245 66.8084 9.96508 66.9195 9.98023V12.1469C66.8286 12.1216 66.667 12.0939 66.4347 12.0636C66.2024 12.0282 65.9701 12.0105 65.7377 12.0105C65.2024 12.0105 64.7251 12.1242 64.3059 12.3514C63.8918 12.5737 63.5635 12.8843 63.3211 13.2833C63.0786 13.6772 62.9574 14.1267 62.9574 14.6317V21.7378H60.6923Z" fill="white"/>
<path d="M71.8842 21.9954C71.1468 21.9954 70.4802 21.859 69.8842 21.5863C69.2882 21.3085 68.816 20.907 68.4675 20.3817C68.1241 19.8565 67.9524 19.2126 67.9524 18.4499C67.9524 17.7934 68.0786 17.253 68.3312 16.8287C68.5837 16.4045 68.9246 16.0686 69.3539 15.8211C69.7832 15.5737 70.263 15.3868 70.7933 15.2605C71.3236 15.1343 71.864 15.0383 72.4145 14.9727C73.1115 14.8918 73.6771 14.8262 74.1115 14.7757C74.5458 14.7201 74.8615 14.6317 75.0584 14.5105C75.2554 14.3893 75.3539 14.1924 75.3539 13.9196V13.8666C75.3539 13.205 75.167 12.6924 74.7933 12.3287C74.4246 11.9651 73.8741 11.7833 73.1418 11.7833C72.3791 11.7833 71.7781 11.9525 71.3387 12.2908C70.9044 12.6242 70.6039 12.9954 70.4372 13.4045L68.3084 12.9196C68.561 12.2126 68.9296 11.6418 69.4145 11.2075C69.9044 10.7681 70.4675 10.4499 71.1039 10.253C71.7403 10.0509 72.4094 9.94993 73.1115 9.94993C73.5761 9.94993 74.0685 10.0055 74.5887 10.1166C75.114 10.2227 75.6039 10.4196 76.0584 10.7075C76.518 10.9954 76.8943 11.407 77.1872 11.9424C77.4802 12.4727 77.6266 13.1621 77.6266 14.0105V21.7378H75.4145V20.1469H75.3236C75.1771 20.4398 74.9574 20.7277 74.6645 21.0105C74.3716 21.2934 73.9953 21.5282 73.5357 21.7151C73.0761 21.9019 72.5256 21.9954 71.8842 21.9954ZM72.3766 20.1772C73.0029 20.1772 73.5382 20.0535 73.9827 19.806C74.4322 19.5585 74.7731 19.2353 75.0054 18.8363C75.2428 18.4323 75.3615 18.0004 75.3615 17.5408V16.0408C75.2807 16.1216 75.1241 16.1974 74.8918 16.2681C74.6645 16.3338 74.4044 16.3918 74.1115 16.4424C73.8185 16.4878 73.5332 16.5307 73.2554 16.5711C72.9776 16.6065 72.7453 16.6368 72.5584 16.6621C72.119 16.7176 71.7175 16.811 71.3539 16.9424C70.9953 17.0737 70.7074 17.2631 70.4903 17.5105C70.2781 17.753 70.1721 18.0762 70.1721 18.4802C70.1721 19.0408 70.3791 19.4651 70.7933 19.753C71.2074 20.0358 71.7352 20.1772 72.3766 20.1772Z" fill="white"/>
<path d="M82.631 14.8287V21.7378H80.3659V10.1014H82.5401V11.9954H82.6841C82.9517 11.3792 83.3709 10.8843 83.9416 10.5105C84.5174 10.1368 85.2421 9.94993 86.1159 9.94993C86.9088 9.94993 87.6033 10.1166 88.1992 10.4499C88.7952 10.7782 89.2573 11.2681 89.5856 11.9196C89.9139 12.5711 90.078 13.3767 90.078 14.3363V21.7378H87.8129V14.609C87.8129 13.7656 87.5932 13.1065 87.1538 12.6317C86.7144 12.1519 86.1108 11.9121 85.3432 11.9121C84.8179 11.9121 84.3507 12.0257 83.9416 12.253C83.5376 12.4802 83.2169 12.8136 82.9795 13.253C82.7472 13.6873 82.631 14.2126 82.631 14.8287Z" fill="white"/>
<path d="M101.558 12.9424L99.5048 13.306C99.4189 13.0434 99.2826 12.7934 99.0957 12.556C98.9139 12.3186 98.6664 12.1242 98.3533 11.9727C98.0401 11.8211 97.6487 11.7454 97.179 11.7454C96.5376 11.7454 96.0023 11.8893 95.573 12.1772C95.1437 12.46 94.929 12.8262 94.929 13.2757C94.929 13.6646 95.073 13.9777 95.3608 14.2151C95.6487 14.4525 96.1134 14.6469 96.7548 14.7984L98.6033 15.2227C99.674 15.4701 100.472 15.8514 100.997 16.3666C101.522 16.8817 101.785 17.5509 101.785 18.3742C101.785 19.0711 101.583 19.6924 101.179 20.2378C100.78 20.7782 100.222 21.2025 99.5048 21.5105C98.7927 21.8186 97.9669 21.9727 97.0275 21.9727C95.7245 21.9727 94.6613 21.6949 93.8381 21.1393C93.0149 20.5787 92.5098 19.7833 92.323 18.753L94.5123 18.4196C94.6487 18.9903 94.929 19.4222 95.3533 19.7151C95.7775 20.003 96.3305 20.1469 97.0123 20.1469C97.7548 20.1469 98.3482 19.9929 98.7927 19.6848C99.2371 19.3716 99.4593 18.9903 99.4593 18.5408C99.4593 18.1772 99.323 17.8716 99.0502 17.6242C98.7826 17.3767 98.3709 17.1898 97.8154 17.0636L95.8457 16.6317C94.7598 16.3843 93.9568 15.9903 93.4366 15.4499C92.9214 14.9095 92.6639 14.2252 92.6639 13.3969C92.6639 12.71 92.8558 12.109 93.2396 11.5939C93.6235 11.0787 94.1538 10.6772 94.8305 10.3893C95.5073 10.0964 96.2826 9.94993 97.1563 9.94993C98.4139 9.94993 99.4038 10.2227 100.126 10.7681C100.848 11.3085 101.325 12.0333 101.558 12.9424Z" fill="white"/>
<path d="M103.998 26.1014V10.1014H106.21V11.9878H106.399C106.531 11.7454 106.72 11.4651 106.968 11.1469C107.215 10.8287 107.558 10.5509 107.998 10.3136C108.437 10.0711 109.018 9.94993 109.74 9.94993C110.68 9.94993 111.518 10.1873 112.255 10.6621C112.993 11.1368 113.571 11.8211 113.99 12.7151C114.414 13.609 114.627 14.6848 114.627 15.9424C114.627 17.1999 114.417 18.2782 113.998 19.1772C113.579 20.0711 113.003 20.7605 112.271 21.2454C111.538 21.7252 110.702 21.9651 109.763 21.9651C109.056 21.9651 108.478 21.8464 108.028 21.609C107.584 21.3716 107.235 21.0939 106.983 20.7757C106.73 20.4575 106.536 20.1747 106.399 19.9272H106.263V26.1014H103.998ZM106.218 15.9196C106.218 16.7378 106.336 17.455 106.574 18.0711C106.811 18.6873 107.154 19.1696 107.604 19.5181C108.053 19.8615 108.604 20.0333 109.255 20.0333C109.932 20.0333 110.498 19.854 110.952 19.4954C111.407 19.1317 111.75 18.6393 111.983 18.0181C112.22 17.3969 112.339 16.6974 112.339 15.9196C112.339 15.1519 112.223 14.4626 111.99 13.8514C111.763 13.2403 111.42 12.758 110.96 12.4045C110.505 12.0509 109.937 11.8742 109.255 11.8742C108.599 11.8742 108.043 12.0434 107.589 12.3817C107.139 12.7201 106.798 13.1924 106.566 13.7984C106.334 14.4045 106.218 15.1115 106.218 15.9196Z" fill="white"/>
<path d="M120.273 21.9954C119.536 21.9954 118.869 21.859 118.273 21.5863C117.677 21.3085 117.205 20.907 116.856 20.3817C116.513 19.8565 116.341 19.2126 116.341 18.4499C116.341 17.7934 116.468 17.253 116.72 16.8287C116.973 16.4045 117.313 16.0686 117.743 15.8211C118.172 15.5737 118.652 15.3868 119.182 15.2605C119.712 15.1343 120.253 15.0383 120.803 14.9727C121.5 14.8918 122.066 14.8262 122.5 14.7757C122.935 14.7201 123.25 14.6317 123.447 14.5105C123.644 14.3893 123.743 14.1924 123.743 13.9196V13.8666C123.743 13.205 123.556 12.6924 123.182 12.3287C122.813 11.9651 122.263 11.7833 121.531 11.7833C120.768 11.7833 120.167 11.9525 119.728 12.2908C119.293 12.6242 118.993 12.9954 118.826 13.4045L116.697 12.9196C116.95 12.2126 117.319 11.6418 117.803 11.2075C118.293 10.7681 118.856 10.4499 119.493 10.253C120.129 10.0509 120.798 9.94993 121.5 9.94993C121.965 9.94993 122.457 10.0055 122.978 10.1166C123.503 10.2227 123.993 10.4196 124.447 10.7075C124.907 10.9954 125.283 11.407 125.576 11.9424C125.869 12.4727 126.016 13.1621 126.016 14.0105V21.7378H123.803V20.1469H123.712C123.566 20.4398 123.346 20.7277 123.053 21.0105C122.76 21.2934 122.384 21.5282 121.925 21.7151C121.465 21.9019 120.914 21.9954 120.273 21.9954ZM120.766 20.1772C121.392 20.1772 121.927 20.0535 122.372 19.806C122.821 19.5585 123.162 19.2353 123.394 18.8363C123.632 18.4323 123.75 18.0004 123.75 17.5408V16.0408C123.67 16.1216 123.513 16.1974 123.281 16.2681C123.053 16.3338 122.793 16.3918 122.5 16.4424C122.207 16.4878 121.922 16.5307 121.644 16.5711C121.367 16.6065 121.134 16.6368 120.947 16.6621C120.508 16.7176 120.106 16.811 119.743 16.9424C119.384 17.0737 119.096 17.2631 118.879 17.5105C118.667 17.753 118.561 18.0762 118.561 18.4802C118.561 19.0408 118.768 19.4651 119.182 19.753C119.596 20.0358 120.124 20.1772 120.766 20.1772Z" fill="white"/>
<path d="M128.755 21.7378V10.1014H130.944V11.9499H131.065C131.278 11.3237 131.651 10.8312 132.187 10.4727C132.727 10.109 133.338 9.9272 134.02 9.9272C134.161 9.9272 134.328 9.93225 134.52 9.94235C134.717 9.95245 134.871 9.96508 134.982 9.98023V12.1469C134.891 12.1216 134.73 12.0939 134.497 12.0636C134.265 12.0282 134.033 12.0105 133.8 12.0105C133.265 12.0105 132.788 12.1242 132.368 12.3514C131.954 12.5737 131.626 12.8843 131.384 13.2833C131.141 13.6772 131.02 14.1267 131.02 14.6317V21.7378H128.755Z" fill="white"/>
<path d="M141.263 21.9727C140.117 21.9727 139.129 21.7277 138.301 21.2378C137.478 20.7429 136.841 20.0484 136.392 19.1545C135.947 18.2555 135.725 17.2025 135.725 15.9954C135.725 14.8035 135.947 13.753 136.392 12.8439C136.841 11.9348 137.468 11.2252 138.271 10.7151C139.079 10.205 140.023 9.94993 141.104 9.94993C141.76 9.94993 142.397 10.0585 143.013 10.2757C143.629 10.4929 144.182 10.8338 144.672 11.2984C145.162 11.7631 145.548 12.3666 145.831 13.109C146.114 13.8464 146.255 14.7429 146.255 15.7984V16.6014H137.005V14.9045H144.036C144.036 14.3085 143.914 13.7807 143.672 13.3211C143.43 12.8565 143.089 12.4903 142.649 12.2227C142.215 11.955 141.705 11.8211 141.119 11.8211C140.483 11.8211 139.927 11.9777 139.452 12.2908C138.983 12.5989 138.619 13.003 138.361 13.503C138.109 13.9979 137.983 14.5358 137.983 15.1166V16.4424C137.983 17.2201 138.119 17.8817 138.392 18.4272C138.67 18.9727 139.056 19.3893 139.551 19.6772C140.046 19.96 140.624 20.1014 141.286 20.1014C141.715 20.1014 142.106 20.0408 142.46 19.9196C142.813 19.7934 143.119 19.6065 143.377 19.359C143.634 19.1115 143.831 18.806 143.968 18.4424L146.111 18.8287C145.94 19.46 145.632 20.0131 145.187 20.4878C144.748 20.9575 144.195 21.3237 143.528 21.5863C142.867 21.8439 142.111 21.9727 141.263 21.9727Z" fill="white"/>
<path d="M150.756 14.8287V21.7378H148.491V10.1014H150.665V11.9954H150.809C151.077 11.3792 151.496 10.8843 152.067 10.5105C152.642 10.1368 153.367 9.94993 154.241 9.94993C155.034 9.94993 155.728 10.1166 156.324 10.4499C156.92 10.7782 157.382 11.2681 157.711 11.9196C158.039 12.5711 158.203 13.3767 158.203 14.3363V21.7378H155.938V14.609C155.938 13.7656 155.718 13.1065 155.279 12.6317C154.839 12.1519 154.236 11.9121 153.468 11.9121C152.943 11.9121 152.476 12.0257 152.067 12.253C151.663 12.4802 151.342 12.8136 151.105 13.253C150.872 13.6873 150.756 14.2126 150.756 14.8287Z" fill="white"/>
<path d="M166.395 10.1014V11.9196H160.039V10.1014H166.395ZM161.743 7.31357H164.009V18.3211C164.009 18.7605 164.074 19.0913 164.206 19.3136C164.337 19.5307 164.506 19.6797 164.713 19.7605C164.925 19.8363 165.155 19.8742 165.403 19.8742C165.584 19.8742 165.743 19.8615 165.88 19.8363C166.016 19.811 166.122 19.7908 166.198 19.7757L166.607 21.6469C166.476 21.6974 166.289 21.7479 166.046 21.7984C165.804 21.854 165.501 21.8843 165.137 21.8893C164.541 21.8994 163.986 21.7934 163.471 21.5711C162.956 21.3489 162.539 21.0055 162.221 20.5408C161.903 20.0762 161.743 19.4929 161.743 18.7908V7.31357Z" fill="white"/>
</g>
</g>
</g>
</svg>
